<?xml version="1.0" standalone="no"?>
<!DOCTYPE svg PUBLIC "-//W3C//DTD SVG 1.1//EN" "http://www.w3.org/Graphics/SVG/1.1/DTD/svg11.dtd" >
<svg xmlns="http://www.w3.org/2000/svg">
<metadata>Generated by IcoMoon</metadata>
<defs>
<font id="icomoon" horiz-adv-x="1024">
<font-face units-per-em="1024" ascent="960" descent="-64" />
<missing-glyph horiz-adv-x="1024" />
<glyph unicode="&#x20;" horiz-adv-x="512" d="" />
<glyph unicode="&#xc603;" glyph-name="bubble" d="M510-47.56c-28.206 0-55.95 13.644-84.816 41.712-20.81 20.232-40.032 45.49-58.62 69.918-19.75 25.952-40.174 52.79-55.534 63.368-69.896 48.142-125.266 102.018-164.568 160.13-47.394 70.076-71.422 146.23-71.422 226.354 0 58.702 11.506 115.668 34.198 169.318 21.91 51.8 53.266 98.312 93.2 138.246s86.444 71.29 138.246 93.2c53.65 22.69 110.616 34.198 169.318 34.198s115.67-11.506 169.318-34.198c51.798-21.91 98.312-53.266 138.244-93.2s71.29-86.444 93.198-138.246c22.692-53.65 34.198-110.616 34.198-169.318 0-81.894-23.53-158.812-69.938-228.616-41.054-61.754-98.346-115.658-170.282-160.216-13.316-8.246-34.41-36.23-53.024-60.922-18.302-24.278-37.23-49.384-57.75-69.642-28.686-28.318-56.152-42.086-83.966-42.086zM510 869.828c-95.066 0-184.442-37.020-251.664-104.242s-104.242-156.598-104.242-251.666c0-64.048 19.464-125.306 57.854-182.068 33.758-49.914 82.18-96.784 143.926-139.312 25.772-17.75 49.004-48.278 73.6-80.6 16.834-22.118 34.238-44.99 50.82-61.114 18.928-18.404 28.068-19.336 29.708-19.336 0.91 0 9.438 0.542 28.43 19.292 16.41 16.2 33.568 38.96 50.16 60.972 25.004 33.168 48.622 64.496 74.522 80.54 62.21 38.532 111.356 84.552 146.078 136.776 37.634 56.61 56.716 118.802 56.716 184.85 0 95.066-37.020 184.442-104.242 251.666s-156.598 104.244-251.664 104.244zM616.672 687.596c2.434-0.83 4.834-1.736 7.212-2.716-3.148 1.328-6.294 2.656-9.442 3.986 10.248-4.38 19.702-10.206 28.544-16.97-2.668 2.060-5.332 4.12-8 6.18 13.95-10.866 26.072-23.786 36.91-37.722-2.060 2.666-4.12 5.332-6.18 8 16.376-21.302 29.804-44.808 40.328-69.514-1.328 3.148-2.656 6.296-3.986 9.442 3.148-7.48 6.020-15.064 8.544-22.776 6.692-20.46 27.104-33.524 48.622-27.608 20.022 5.508 34.304 28.14 27.606 48.622-11.418 34.914-28.25 68.712-50.186 98.22-25.818 34.73-57.226 64.87-98.956 79.084-20.404 6.948-43.166-7.774-48.622-27.608-5.972-21.712 7.23-41.682 27.606-48.622v0z" />
<glyph unicode="&#xc604;" glyph-name="project" d="M926.61 729.662c-1.218 30.212-10.964 37.278-36.79 37.278 0 0-295.784 0-348.9 0s-59.45-0.73-99.652 42.394c-33.38 36.060-20.224 35.572-89.174 35.572-55.064 0-183.464 0-183.464 0-42.394 0-57.5 3.654-61.398-40.446-3.656-40.688-12.182-139.366-13.4-154.472h836.674l-3.9 79.672zM936.112 611.006h-848.37c-43.126 0-45.318-22.414-42.882-49.948l31.674-445.87c2.192-27.288 8.528-49.948 51.408-49.948h33.992l126.286 227.378 97.222-53.996-96.296-173.38h609.198c43.856 0 48.972 22.414 51.408 49.948l29.48 451.474c2.192 27.286 0 44.342-43.126 44.342zM611.718 331.908l-47.908-86.26c-5.916-10.652-19.348-14.49-30-8.576l-42.432 23.568c-18.954 8.284-4.48 34.596-21.292 45.476l-36.116 19.794-28.156-50.696-97.296 54.038 18.45 33.218c3.334 6 2.674 15.864-1.93 23.786-13.48 23.19-62.486 57.138-101.966 72.894s-120.064 17.082-120.064 17.082 192.296 54.404 237.87 31.442c21.892-11.030 52.29-29.042 52.29-29.042l76.722-42.61c10.652-5.916 14.49-19.348 8.574-30l-3.504-6.308 35.892-20.198c18.122-8.522 32.81 17.672 49.858 5.958l42.432-23.568c10.654-5.918 14.494-19.348 8.576-30z" />
<glyph unicode="&#xc605;" glyph-name="read" d="M996.196 512.126v67.606c-0.994 0.802-104.456 81.034-212.258 160.226-148.324 108.96-237.268 161.926-271.918 161.926-36.194 0-125.486-52.256-272.98-159.754-107.21-78.136-210.252-157.3-211.234-158.092v-71.904l-0.564-423.11c0-44.54 36.19-80.688 80.77-80.688h807.938c44.66 0 80.81 36.15 80.81 80.688l-0.566 423.1zM511.98 260.49c-64.128 0-344.552 207.106-446.7 284.202l0.29-8.834c28.020 22.27 108.986 86.068 195.552 149.158 199.192 145.17 243.946 152.522 250.894 152.522 1.914 0 20.76-1.286 92.146-45.842 41.92-26.164 94.936-62.76 157.576-108.774 87.024-63.926 168.774-128.582 197.11-151.176v12.568c-100.924-77.396-376.686-283.826-446.87-283.826z" />
<glyph unicode="&#xc606;" glyph-name="advanced-setting" d="M914.832-31.892c-16.308 0-31.528 6.318-42.862 17.792l-313.214 313.214c-17.232-6.712-34.944-10.11-52.796-10.11-81.954 0-148.626 66.674-148.626 148.626 0 13.884 2.38 28.23 7.278 43.86l8.212 26.206 96.582-96.582 77.354 9.246 9.282 78.716-95.798 95.76 26.592 8.040c15.356 4.642 29.304 6.9 42.646 6.9 81.952 0 148.626-66.674 148.626-148.626 0-17.904-3.392-35.624-10.096-52.822l313.298-313.218c11.41-11.53 17.696-26.764 17.696-42.898 0-22.64-20.634-45.716-29.504-54.586-8.876-8.876-31.97-29.52-54.668-29.52zM605.66 205.452c-0.89-0.332-1.774-0.674-2.666-0.996v0c-28.258-10.226-58.738-15.812-90.524-15.812-146.908 0-266 119.092-266 266s119.092 266 266 266 266-119.092 266-266c0-31.064-5.352-60.87-15.142-88.582l85.744-85.744c10.518 20.268 19.266 41.604 26.024 63.808h79.744c24.392 0 44.164 19.616 44.164 44.198v132.64c0 24.41-19.6 44.2-44.164 44.2h-79.744c-7.196 23.64-16.638 46.298-28.082 67.73l56.406 56.406c17.248 17.248 17.36 45.1-0.024 62.484l-93.79 93.79c-17.26 17.26-45.112 17.394-62.482 0.024l-56.406-56.406c-21.432 11.442-44.092 20.884-67.73 28.082v79.742c0 24.392-19.616 44.164-44.198 44.164h-132.64c-24.41 0-44.2-19.598-44.2-44.164v-79.744c-23.64-7.194-46.298-16.638-67.73-28.082l-56.406 56.406c-17.248 17.248-45.1 17.36-62.484-0.024l-93.79-93.79c-17.26-17.26-17.394-45.112-0.024-62.484l56.406-56.406c-11.444-21.432-20.884-44.092-28.080-67.73h-79.742c-24.392 0-44.164-19.616-44.164-44.2v-132.64c0-24.41 19.598-44.198 44.164-44.198h79.744c7.194-23.64 16.638-46.298 28.080-67.73l-56.406-56.406c-17.248-17.248-17.36-45.1 0.024-62.482l93.79-93.79c17.26-17.26 45.112-17.394 62.484-0.024l56.406 56.406c21.43-11.442 44.092-20.884 67.73-28.082v-79.744c0-24.392 19.616-44.164 44.2-44.164h132.64c24.41 0 44.198 19.6 44.198 44.164v79.744c23.708 7.216 46.428 16.704 67.914 28.192l-85.244 85.244z" />
<glyph unicode="&#xc607;" glyph-name="fork" d="M880.526 803.566h-135.784v135.784h-106.492v-135.784h-135.784v-106.49h135.784v-135.784h106.492v135.784h135.784zM623.754 457.576c0 0-10.038-65.798-36.802-92.564s-92.27-42.378-152.492-42.378c-33.24 0-61.806-7.836-85.594-18.81v345.31c34.814 20.318 58.276 58.052 58.276 101.188 0 64.568-52.53 117.098-117.098 117.098s-117.098-52.53-117.098-117.098c0-43.134 23.462-80.87 58.276-101.188v-470.61c-34.816-20.318-58.276-58.052-58.276-101.188 0-64.568 52.53-117.098 117.098-117.098s117.098 52.528 117.098 117.098c0 37.118-17.38 70.234-44.406 91.702 19.428 16.658 64.038 48.766 119.384 48.766 34.572 0 149.44 14.498 202.128 75.836 38.664 45.010 60.496 163.938 60.496 163.938h-120.99zM290.044 813.888c35.050 0 63.568-28.514 63.568-63.568s-28.514-63.568-63.568-63.568-63.568 28.516-63.568 63.568 28.516 63.568 63.568 63.568zM290.044 13.768c-35.050 0-63.568 28.518-63.568 63.568s28.516 63.568 63.568 63.568 63.568-28.518 63.568-63.568c0-35.050-28.514-63.568-63.568-63.568z" />
<glyph unicode="&#xc608;" glyph-name="pull-request" d="M346.538 206.006v475.080c35.158 20.51 58.838 58.636 58.838 102.192 0 65.188-53.036 118.226-118.224 118.226s-118.226-53.036-118.226-118.226c0-43.556 23.68-81.682 58.838-102.192v-475.080c-35.158-20.51-58.838-58.634-58.838-102.192 0-65.19 53.036-118.226 118.226-118.226s118.226 53.034 118.226 118.226c0 43.556-23.68 81.682-58.838 102.192zM287.15 847.458c35.39 0 64.178-28.79 64.178-64.178s-28.79-64.18-64.178-64.18c-35.39 0-64.18 28.79-64.18 64.18s28.79 64.178 64.18 64.178zM287.15 39.636c-35.39 0-64.18 28.792-64.18 64.178s28.79 64.178 64.18 64.178c35.39 0 64.178-28.792 64.178-64.178s-28.79-64.178-64.178-64.178zM827.692 206.006v477.626h-0.072c-2.494 87.196-73.958 157.118-161.758 157.118v0.24h-110.962v83.862l-139.024-139.024 139.024-147.716v83.862h106.404c1.5 0.158 3.020 0.24 4.558 0.24 0.77 0 1.534-0.020 2.294-0.062 0.014 0 0.024-0.002 0.038-0.002 0.748-0.040 1.49-0.1 2.228-0.176v0c20.27-2.122 36.374-18.226 38.496-38.496v-477.472c-35.158-20.51-58.838-58.634-58.838-102.192 0-65.19 53.036-118.226 118.226-118.226s118.226 53.034 118.226 118.226c0 43.558-23.678 81.682-58.836 102.192zM768.304 39.636c-35.39 0-64.18 28.792-64.18 64.178s28.792 64.178 64.18 64.178c35.39 0 64.178-28.792 64.178-64.178s-28.79-64.178-64.178-64.178z" />
<glyph unicode="&#xc610;" glyph-name="merge-request" d="M868.11 645.026c-2.494 87.196-73.958 157.118-161.758 157.118v0.24h-68.436v83.862l-139.024-139.024 139.024-147.716v83.862h63.876c1.5 0.158 3.020 0.24 4.558 0.24 0.77 0 1.534-0.020 2.294-0.060 0.014 0 0.024-0.002 0.038-0.004 0.748-0.040 1.49-0.098 2.228-0.176 20.27-2.122 36.374-18.226 38.496-38.496l1-9.12v-85.81c0 0-0.346-100.996-24.174-149.99-23.458-48.232-86.956-78.73-191.586-78.73-33.24 0-82.522-9.158-106.31-20.134v345.31c34.814 20.318 58.276 58.052 58.276 101.188 0 64.568-52.53 117.098-117.098 117.098s-117.098-52.53-117.098-117.098c0-43.134 23.462-80.87 58.276-101.188v-470.61c-34.816-20.318-58.276-58.052-58.276-101.188 0-64.568 52.53-117.098 117.098-117.098s117.098 52.528 117.098 117.098c0 37.118-17.38 70.234-44.406 91.702 19.428 16.658 59.356 52.85 123.47 52.85 86.97 0 198.218 4.788 267.552 126.958 35.786 63.056 34.956 171.64 34.956 171.64v127.274h-0.072zM305.944 747.586c0 35.052 28.516 63.568 63.568 63.568s63.568-28.514 63.568-63.568-28.514-63.568-63.568-63.568-63.568 28.516-63.568 63.568zM369.512 11.034c-35.050 0-63.568 28.518-63.568 63.568s28.516 63.568 63.568 63.568c35.050 0 63.568-28.518 63.568-63.568s-28.514-63.568-63.568-63.568z" />
<glyph unicode="&#xc611;" glyph-name="exclamation" horiz-adv-x="380" d="M44.644 880.574c-0.44 11.36 3.38 21.192 11.472 29.512 8.092 8.304 17.81 12.464 29.186 12.464h209.894c11.358 0 21.076-4.16 29.17-12.464 8.094-8.32 11.912-18.152 11.488-29.512l-18.444-503.676c-0.44-11.376-4.924-21.224-13.44-29.528s-18.462-12.448-29.82-12.448h-167.804c-11.376 0-21.32 4.144-29.836 12.448s-13 18.152-13.424 29.528l-18.446 503.676zM317.060 114.482c0-70.034-56.774-126.808-126.808-126.808s-126.808 56.774-126.808 126.808c0 70.034 56.774 126.808 126.808 126.808s126.808-56.774 126.808-126.808z" />
<glyph unicode="&#xc612;" glyph-name="exclamation_line" horiz-adv-x="380" d="M269.004 313.608h-157.506c-17.978 0-34.46 6.808-47.664 19.684-13.128 12.802-20.418 28.996-21.080 46.832l-17.314 472.774c-0.706 18.3 5.766 35.044 18.724 48.364 12.9 13.238 29.348 20.226 47.58 20.226h197.012c18.224 0 34.664-6.988 47.546-20.206 12.96-13.326 19.44-30.054 18.758-48.4l-17.312-472.744c-0.69-17.88-7.986-34.062-21.094-46.846-13.202-12.876-29.68-19.684-47.65-19.684zM91.746 865.17c-2.606 0-4.626-0.522-7.228-3.194-2.478-2.546-2.898-4.414-2.798-6.962l17.314-472.818c0.106-2.842 0.846-5.394 4.118-8.586 3.138-3.058 5.606-3.686 8.346-3.686h157.506c2.732 0 5.194 0.626 8.33 3.684 3.28 3.198 4.026 5.768 4.138 8.644l17.31 472.706c0.096 2.584-0.326 4.462-2.83 7.036-2.584 2.652-4.596 3.174-7.194 3.174h-197.010zM190.252-12.326c-81.158 0-147.184 66.026-147.184 147.184s66.026 147.184 147.184 147.184c81.158 0 147.182-66.026 147.182-147.184s-66.026-147.184-147.182-147.184zM190.252 225.724c-50.104 0-90.868-40.762-90.868-90.866s40.762-90.866 90.868-90.866c50.104 0 90.866 40.762 90.866 90.866s-40.762 90.866-90.866 90.866z" />
<glyph unicode="&#xc613;" glyph-name="recommended" d="M379.302 693.148v27.99h72.998v23.11h32.846v-23.11h76.64v23.11h31.632v-23.11h71.782v-27.99h-71.784v-19.47h-31.632v19.47h-76.64v-17.042l18.256-1.214-7.308-14.59h166.68v-26.776h-182.482c-8.132-14.59-17.454-28.792-27.99-42.556v-136.262h-31.632v100.964c-10.536-11.362-23.11-23.11-37.7-35.274-0.826 4.856-3.252 12.964-7.308 24.324-1.626 4.054-2.84 7.308-3.642 9.734 28.378 21.896 52.704 48.236 72.974 79.066h-64.478v26.776h80.306c2.428 4.856 4.856 9.734 7.308 14.59h-15.828v18.256h-72.998zM468.128 522.828v27.99h92.444v7.282l41.366 26.776h-114.364v25.538h160.586v-24.324l-55.956-35.274h72.996v-27.99h-72.998v-31.632c0.802-21.896-10.948-33.234-35.274-34.060-12.162 0-28.402 0-48.674 0-0.802 3.252-2.428 9.734-4.856 19.47-0.826 4.054-1.626 7.308-2.428 9.734 11.336-0.802 24.712-1.214 40.128-1.214 13.788-0.802 20.27 4.030 19.47 14.59v23.11h-92.44zM786.126 414.394c37.852 53.458 60.308 118.582 60.308 189.066 0 181.052-146.772 327.824-327.824 327.824s-327.824-146.772-327.824-327.824c0-70.11 22.198-134.936 59.684-188.234l-208.838-244.764 210.222 11.99 11.246-203.51 253.822 296.78c0.57-0.004 1.12-0.084 1.69-0.084 0.136 0 0.268 0.020 0.402 0.020l244.228-287.388 11.246 203.51 210.222-11.99-198.584 234.604zM518.61 849.714c136.004 0 246.256-110.252 246.256-246.256s-110.252-246.256-246.256-246.256-246.256 110.252-246.256 246.256 110.252 246.256 246.256 246.256z" />
<glyph unicode="&#xc614;" glyph-name="anchor" d="M294.372 332.096h-32.178c-67.94 0-123.016 55.076-123.016 123.016s55.076 123.016 123.016 123.016h182.68c67.94 0 123.016-55.076 123.016-123.016 0-22.058-5.834-42.742-16-60.642h133.164c4.918 19.4 7.552 39.712 7.552 60.642 0 135.878-110.152 246.030-246.032 246.030h-186.076c-135.88 0-246.032-110.152-246.032-246.030s110.152-246.032 246.032-246.032h128.476c-41.020 32.21-73.786 74.43-94.6 123.016zM729.628 578.128h32.178c67.94 0 123.016-55.076 123.016-123.016s-55.076-123.016-123.016-123.016h-182.68c-67.94 0-123.016 55.076-123.016 123.016 0 22.058 5.834 42.74 16 60.642h-133.164c-4.918-19.4-7.55-39.712-7.55-60.642 0-135.88 110.154-246.032 246.032-246.032h186.076c135.88 0 246.032 110.152 246.032 246.032s-110.152 246.032-246.032 246.032h-128.474c41.018-32.208 73.784-74.43 94.6-123.016z" />
<glyph unicode="&#xc615;" glyph-name="gold" horiz-adv-x="1288" d="M1084.832 596.648c0-148.252-214.14-268.432-478.298-268.432s-478.298 120.182-478.298 268.432c0 148.25 214.14 268.432 478.298 268.432s478.298-120.18 478.298-268.432zM1080.992 347.74c2.53-11.188 3.836-22.59 3.836-34.164 0-148.25-214.14-268.432-478.298-268.432s-478.298 120.182-478.298 268.432c0 11.572 1.306 22.976 3.836 34.164 29.902-132.12 230.926-234.27 474.46-234.27s444.558 102.15 474.46 234.27zM1079.808 489.276c3.31-12.748 5.022-25.784 5.022-39.046 0-148.25-214.14-268.432-478.298-268.432s-478.298 120.182-478.298 268.432c0 13.26 1.712 26.298 5.022 39.046 33.686-129.746 232.748-229.388 473.274-229.388s439.586 99.644 473.274 229.388z" />
<glyph unicode="&#xc616;" glyph-name="no-newline" d="M896 647.112v-128h-128v128l-192-192 192-192v128h192c0 0 64 0.376 64 64s0 192 0 192h-128zM224 679.112c-123.718 0-224-100.28-224-224 0-123.75 100.282-224 224-224s224 100.25 224 224c0 123.72-100.282 224-224 224zM96 455.112c0 70.656 57.344 128 128 128 18.75 0 36.406-4.218 52.468-11.53l-168.938-168.97c-7.312 16.126-11.532 33.75-11.532 52.5zM224 327.112c-18.75 0-36.406 4.25-52.468 11.5l168.938 168.97c7.312-16.062 11.532-33.72 11.532-52.47 0-70.626-57.344-128-128-128z" />
<glyph unicode="&#xc617;" glyph-name="share" horiz-adv-x="1020" d="M88.46 454.624c0 48.634 17.094 90.046 51.284 124.234s75.6 51.284 124.234 51.284c46.074 0 85.93-15.724 119.572-47.17l197.46 98.728c-0.73 8.044-1.096 14.26-1.096 18.648 0 48.632 17.096 90.044 51.284 124.234s75.6 51.284 124.234 51.284c48.634 0 90.044-17.096 124.234-51.284s51.284-75.6 51.284-124.234c0-48.634-17.096-90.046-51.284-124.234s-75.6-51.284-124.234-51.284c-46.074 0-85.932 15.724-119.572 47.17l-197.46-98.728c0.73-8.044 1.096-14.26 1.096-18.648s-0.366-10.604-1.096-18.648l197.46-98.728c33.642 31.448 73.498 47.17 119.572 47.17 48.634 0 90.044-17.096 124.234-51.284s51.284-75.6 51.284-124.234c0-48.634-17.096-90.044-51.284-124.234s-75.6-51.284-124.234-51.284c-48.634 0-90.044 17.096-124.234 51.284s-51.284 75.6-51.284 124.234c0 4.386 0.366 10.606 1.096 18.648l-197.46 98.728c-33.642-31.448-73.498-47.17-119.572-47.17-48.634 0-90.046 17.096-124.234 51.284s-51.284 75.6-51.284 124.234v0z" />
<glyph unicode="&#xc618;" glyph-name="organization" d="M963.072 566.262c-14.134 43.498-54.332 72.724-100.038 72.724-11.020 0-21.964-1.74-32.532-5.176-26.728-8.682-48.472-27.256-61.232-52.294-11.342-22.262-14.356-47.262-8.788-71.318l-103.636-33.674c-21.332 54.274-72.446 93.564-133.22 97.768v107.686c53.798 5.446 95.926 51 95.926 106.212 0 58.866-47.89 106.758-106.756 106.758s-106.758-47.89-106.758-106.758c0-55.212 42.124-100.764 95.926-106.212v-107.686c-60.232-4.166-110.976-42.806-132.638-96.334l-102.384 33.266c5.222 23.98 2.052 48.826-9.238 70.99-12.944 25.408-35.010 44.254-62.134 53.062-10.724 3.484-21.83 5.25-33.010 5.25-46.374 0-87.168-29.656-101.512-73.794-8.81-27.12-6.536-56.048 6.41-81.456 12.948-25.408 35.012-44.254 62.132-53.064 10.724-3.482 21.83-5.25 33.008-5.25 42.728 0 80.704 25.188 97.632 63.664l102.404-33.272c-2.974-11.978-4.564-24.502-4.564-37.402 0-47.566 21.468-90.112 55.238-118.49l-63.308-87.13c-16.26 9.494-34.576 14.482-53.582 14.482-34.106 0-66.424-16.454-86.446-44.014-34.604-47.62-24.008-114.514 23.616-149.12 18.366-13.342 40.034-20.392 62.672-20.392 34.106 0 66.424 16.452 86.448 44.014 16.76 23.068 23.538 51.286 19.074 79.448-3.892 24.57-15.928 46.528-34.25 62.86l63.286 87.11c23.77-14.876 51.86-23.482 81.964-23.482s58.202 8.61 81.964 23.482l63.288-87.112c-18.322-16.336-30.362-38.294-34.25-62.86-4.462-28.166 2.314-56.384 19.072-79.448 20.020-27.56 52.342-44.018 86.448-44.018 22.636 0 44.304 7.052 62.674 20.392 23.070 16.76 38.232 41.504 42.692 69.666 4.46 28.166-2.316 56.384-19.076 79.448-20.020 27.56-52.342 44.018-86.448 44.018-19.004 0-37.318-4.99-53.578-14.48l-63.308 87.134c33.768 28.38 55.24 70.926 55.24 118.492 0 13.44-1.716 26.48-4.938 38.914l103.634 33.674c16.394-38.648 54.196-64.026 96.778-64.026 11.020 0 21.964 1.74 32.53 5.174 55.178 17.924 85.482 77.398 67.554 132.572zM243.514 507.448c-11.432-35.182-43.95-58.822-80.912-58.822-8.902 0-17.756 1.41-26.316 4.188-21.618 7.024-39.206 22.048-49.524 42.298-10.316 20.252-12.132 43.312-5.112 64.928 11.432 35.186 43.952 58.824 80.91 58.824 8.902 0 17.756-1.41 26.318-4.19 21.616-7.024 39.206-22.048 49.524-42.298s12.134-43.312 5.11-64.928zM380.402 135.358c3.556-22.452-1.846-44.938-15.204-63.332-15.962-21.97-41.726-35.082-68.924-35.082-18.030 0-35.3 5.622-49.942 16.256-37.962 27.582-46.406 80.904-18.824 118.862 15.96 21.97 41.726 35.082 68.92 35.082 18.030 0 35.302-5.624 49.944-16.26 18.39-13.358 30.478-33.080 34.032-55.53zM798.084 172.060c13.36-18.388 18.76-40.88 15.206-63.33s-15.64-42.168-34.030-55.532c-14.64-10.636-31.91-16.256-49.944-16.256-27.198 0-52.962 13.116-68.924 35.086-13.36 18.388-18.76 40.88-15.204 63.33 3.558 22.452 15.644 42.17 34.030 55.534 14.64 10.636 31.904 16.256 49.94 16.256 27.198 0 52.962-13.116 68.926-35.086zM427.7 788.188c0 46.92 38.174 85.096 85.096 85.096s85.096-38.174 85.096-85.096-38.174-85.096-85.096-85.096c-46.92 0-85.096 38.174-85.096 85.096zM889.784 451.346c-8.712-2.828-17.728-4.264-26.792-4.264-37.634 0-70.74 24.070-82.384 59.9-7.154 22.012-5.306 45.488 5.206 66.106 10.506 20.62 28.414 35.916 50.426 43.066 8.714 2.83 17.73 4.264 26.796 4.264 37.634 0 70.742-24.068 82.382-59.894 14.76-45.442-10.196-94.42-55.634-109.182z" />
<glyph unicode="&#xc619;" glyph-name="git-compare" horiz-adv-x="896" d="M808.376 258.030s0 287.174 0 377.268-90.094 180.188-180.188 180.188c-60.062 0-60.062 0-60.062 0v120.126l-180.188-180.188 180.188-180.188v120.126s30.030 0 60.062 0 60.062-30.032 60.062-60.062 0-377.268 0-377.268c-35.664-20.648-60.062-59.124-60.062-103.234 0-66.632 53.494-120.126 120.126-120.126s120.126 53.494 120.126 120.126c0 44.108-24.4 82.586-60.062 103.232zM748.312 94.736c-32.846 0-60.062 27.216-60.062 60.062s27.216 60.062 60.062 60.062 60.062-27.216 60.062-60.062-27.216-60.062-60.062-60.062zM327.876 214.862s-30.032 0-60.062 0-60.062 30.030-60.062 60.062 0 377.268 0 377.268c35.664 20.646 60.062 59.124 60.062 103.232 0 66.632-53.492 120.126-120.126 120.126s-120.126-53.492-120.126-120.126c0-44.108 24.4-82.586 60.064-103.232 0 0 0-287.174 0-377.268s90.094-180.188 180.188-180.188c60.062 0 60.062 0 60.062 0v-120.126l180.188 180.188-180.188 180.188v-120.126zM147.688 695.362c-32.846 0-60.064 27.216-60.064 60.062s27.216 60.062 60.064 60.062 60.062-27.216 60.062-60.062-27.216-60.062-60.062-60.062z" />
<glyph unicode="&#xc620;" glyph-name="git-commit" horiz-adv-x="896" d="M694.876 519.112c-28.5 110.22-127.75 192-246.876 192-119.094 0-218.376-81.78-246.906-192h-201.094v-128h201.094c28.532-110.25 127.812-192 246.906-192 119.126 0 218.376 81.75 246.876 192h201.126v128h-201.126zM448 327.112c-70.656 0-128 57.376-128 128 0 70.656 57.344 128 128 128 70.626 0 128-57.344 128-128 0-70.626-57.376-128-128-128z" />
<glyph unicode="&#xc621;" glyph-name="mabi" d="M844 72.512l-42.6 591-144.2-222.6-50 136.4 170.6 261.2h135.6l54.6-766h-124zM627.6 395.112l0.8 1.4-66.2 168.4 0.4 0.2-104.6 273.4h-133.4l-268.6-766h132l201.4 595.8 102-268-214-327.8h473.6l-123.4 322.6zM489.4 181.912l53.6 82.8 31.6-82.8h-85.2z" />
<glyph unicode="&#xc622;" glyph-name="watch" d="M628.736 808.392c61.44 0 111.616-51.2 110.592-112.64 35.84-7.168 233.472-201.728 233.472-399.36 0-107.52-87.040-194.56-194.56-194.56s-194.56 87.040-194.56 194.56c-41.984-30.72-100.352-30.72-142.336 0 0-107.52-87.040-194.56-194.56-194.56s-194.56 87.040-194.56 194.56c0 197.632 197.632 392.192 233.472 399.36-2.048 61.44 48.128 112.64 110.592 112.64 60.416 0 109.568-48.128 110.592-108.544 4.096 0 9.216 0 13.312 0-1.024 60.416 47.104 108.544 108.544 108.544v0zM512 430.536c-20.48 0-36.864-16.384-36.864-36.864s16.384-36.864 36.864-36.864 36.864 16.384 36.864 36.864-16.384 36.864-36.864 36.864v0zM778.24 425.416c-79.872 0-144.384-56.32-144.384-136.192s64.512-136.192 144.384-136.192 144.384 56.32 144.384 136.192c-1.024 78.848-65.536 136.192-144.384 136.192v0zM245.76 425.416c-79.872 0-144.384-56.32-144.384-136.192s64.512-136.192 144.384-136.192c79.872 0 144.384 56.32 144.384 136.192 0 78.848-64.512 136.192-144.384 136.192z" />
<glyph unicode="&#xc623;" glyph-name="team" horiz-adv-x="1176" d="M356.75 844.444c0 20.616 17.012 37.334 37.426 37.334h373.15c20.67 0 37.424-16.572 37.424-37.334 0-20.618-17.014-37.334-37.424-37.334h-373.15c-20.67 0-37.426 16.572-37.426 37.334zM795.414 143.954c-17.856 10.308-24.030 33.048-13.748 50.854l168.164 291.27c10.264 17.778 32.934 23.904 50.914 13.524 17.856-10.308 24.030-33.048 13.748-50.854l-168.164-291.27c-10.264-17.778-32.934-23.904-50.914-13.524zM160.748 499.602c17.854 10.31 40.636 4.286 50.914-13.524l168.164-291.27c10.264-17.778 4.23-40.472-13.748-50.854-17.856-10.308-40.636-4.286-50.914 13.524l-168.164 291.27c-10.264 17.778-4.23 40.472 13.748 50.854zM746.086 39.862c0-20-6.086-35.79-18.25-47.374s-28.334-17.374-48.5-17.374h-218.5c-20.168 0-36.332 5.79-48.5 17.374s-18.25 27.376-18.25 47.374c0 8.834 0.29 17.458 0.872 25.876s1.75 17.5 3.5 27.25c1.75 9.75 3.958 18.792 6.628 27.126s6.25 16.46 10.75 24.376c4.5 7.916 9.666 14.668 15.5 20.25s12.958 10.044 21.376 13.376c8.418 3.332 17.71 5 27.872 5 1.5 0 5-1.792 10.5-5.374s11.71-7.586 18.628-12c6.918-4.414 15.918-8.418 27-12s22.208-5.374 33.376-5.374c11.168 0 22.29 1.792 33.376 5.374s20.082 7.586 27 12c6.918 4.414 13.124 8.418 18.626 12s9 5.374 10.5 5.374c10.168 0 19.46-1.666 27.874-5s15.542-7.792 21.376-13.376c5.834-5.584 11-12.332 15.5-20.25s8.082-16.044 10.75-24.376c2.668-8.332 4.876-17.374 6.626-27.126s2.914-18.832 3.5-27.25c0.582-8.418 0.874-17.042 0.874-25.876zM666.084 263.112c0-26.5-9.376-49.124-28.124-67.876s-41.374-28.124-67.876-28.124c-26.5 0-49.124 9.376-67.876 28.124s-28.124 41.374-28.124 67.876c0 26.5 9.376 49.124 28.124 67.876s41.374 28.124 67.876 28.124c26.5 0 49.124-9.376 67.876-28.124s28.124-41.374 28.124-67.876zM372.75 615.862c0-20-6.084-35.79-18.25-47.372s-28.334-17.374-48.5-17.374h-218.498c-20.168 0-36.332 5.79-48.5 17.374s-18.252 27.376-18.252 47.372c0 8.834 0.292 17.458 0.874 25.876s1.752 17.5 3.502 27.25c1.752 9.75 3.958 18.792 6.626 27.126s6.25 16.46 10.75 24.376c4.5 7.916 9.668 14.668 15.5 20.25s12.958 10.044 21.376 13.376c8.418 3.332 17.71 5.002 27.874 5.002 1.5 0 5.002-1.792 10.5-5.374s11.71-7.584 18.628-12c6.918-4.414 15.918-8.418 27-12s22.21-5.372 33.376-5.372c11.168 0 22.29 1.79 33.376 5.372s20.082 7.586 27 12c6.918 4.416 13.124 8.418 18.628 12s9 5.374 10.5 5.374c10.168 0 19.46-1.666 27.872-5.002s15.542-7.79 21.376-13.376c5.834-5.584 11-12.332 15.5-20.25s8.082-16.042 10.75-24.376c2.668-8.332 4.876-17.372 6.628-27.126s2.916-18.832 3.5-27.25c0.582-8.418 0.872-17.042 0.872-25.876zM292.75 839.112c0-26.5-9.376-49.124-28.124-67.876s-41.372-28.124-67.876-28.124c-26.498 0-49.124 9.376-67.876 28.124s-28.124 41.374-28.124 67.876c0 26.5 9.376 49.124 28.124 67.876s41.372 28.124 67.876 28.124c26.498 0 49.124-9.376 67.876-28.124s28.124-41.372 28.124-67.876zM1156.75 615.862c0-20-6.086-35.79-18.25-47.372s-28.334-17.374-48.5-17.374h-218.5c-20.168 0-36.332 5.79-48.5 17.374s-18.25 27.376-18.25 47.372c0 8.834 0.292 17.458 0.874 25.876s1.75 17.5 3.5 27.25c1.75 9.75 3.958 18.792 6.626 27.126s6.25 16.46 10.75 24.376c4.5 7.916 9.668 14.668 15.5 20.25s12.958 10.044 21.376 13.376c8.418 3.332 17.708 5.002 27.874 5.002 1.5 0 5-1.792 10.5-5.374s11.708-7.584 18.626-12c6.918-4.414 15.918-8.418 27-12s22.208-5.372 33.376-5.372c11.168 0 22.29 1.79 33.376 5.372s20.082 7.586 27 12c6.918 4.416 13.124 8.418 18.626 12s9 5.374 10.5 5.374c10.168 0 19.46-1.666 27.874-5.002s15.542-7.79 21.376-13.376c5.834-5.584 11-12.332 15.5-20.25s8.082-16.042 10.75-24.376c2.668-8.332 4.876-17.372 6.626-27.126s2.914-18.832 3.5-27.25c0.582-8.418 0.874-17.042 0.874-25.876zM1076.748 839.112c0-26.5-9.376-49.124-28.124-67.876s-41.374-28.124-67.876-28.124c-26.5 0-49.124 9.376-67.876 28.124s-28.124 41.374-28.124 67.876c0 26.5 9.376 49.124 28.124 67.876s41.374 28.124 67.876 28.124c26.5 0 49.124-9.376 67.876-28.124s28.124-41.372 28.124-67.876z" />
<glyph unicode="&#xe601;" glyph-name="desktop" horiz-adv-x="1210" d="M54.964 215.258v608.71c0 24.617 8.765 45.69 26.295 63.221s38.604 26.295 63.221 26.295h895.162c24.617 0 45.691-8.765 63.221-26.295s26.295-38.604 26.295-63.221v-608.71c0-24.617-8.765-45.691-26.295-63.221s-38.604-26.295-63.221-26.295h-304.354c0-13.801 2.984-28.254 8.951-43.359s11.936-28.347 17.903-39.723c5.967-11.376 8.951-19.488 8.951-24.337 0-9.698-3.543-18.089-10.63-25.177s-15.48-10.63-25.177-10.63h-286.453c-9.698 0-18.089 3.543-25.177 10.63s-10.63 15.48-10.63 25.177c0 5.222 2.984 13.427 8.951 24.617s11.936 24.245 17.903 39.164c5.968 14.919 8.951 29.466 8.951 43.639h-304.354c-24.617 0-45.691 8.765-63.221 26.295s-26.295 38.604-26.295 63.221v0zM126.578 358.484c0-4.849 1.772-9.045 5.315-12.588s7.739-5.315 12.588-5.315h895.162c4.849 0 9.045 1.772 12.588 5.315s5.315 7.739 5.315 12.588v465.484c0 4.849-1.772 9.045-5.315 12.588s-7.739 5.315-12.588 5.315h-895.162c-4.849 0-9.045-1.772-12.588-5.315s-5.315-7.739-5.315-12.588v-465.484z" />
<glyph unicode="&#xe602;" glyph-name="code" horiz-adv-x="1390" d="M613.856 790.039c0 33.434-27.616 67.931-67.905 67.931-18.032 0-33.763-6.55-46.863-19.7l-338.106-338.106c-11.153-11.153-22.484-24.886-22.484-49.646s9.483-36.671 21.927-49.139l338.663-338.613c13.101-13.151 28.831-19.701 46.863-19.701 40.339 0 67.905 34.496 67.905 67.905 0 17.526-6.322 33.485-19.701 46.863l-292.685 292.685 292.685 292.685c13.378 13.378 19.701 29.338 19.701 46.837v0zM1202.539 500.162l-338.106 338.106c-13.101 13.151-28.831 19.701-46.863 19.701-40.339 0-67.905-34.496-67.905-67.931 0-17.499 6.322-33.46 19.701-46.837l292.685-292.685-292.685-292.685c-13.378-13.378-19.701-29.337-19.701-46.863 0-33.409 27.592-67.905 67.905-67.905 18.032 0 33.762 6.55 46.863 19.701l338.663 338.613c12.444 12.468 21.927 24.38 21.927 49.139s-11.331 38.491-22.484 49.646v0z" />
<glyph unicode="&#xe605;" glyph-name="collaboration" horiz-adv-x="1229" d="M1157.997 801.691c-1.586 39.351-14.315 48.549-48.061 48.549h-455.802c-69.391 0-77.671-0.951-130.189 55.223-43.613 46.967-26.419 46.336-116.498 46.336h-239.689c-55.379 0-75.113 4.754-80.202-52.681-4.778-53.001-15.919-181.531-17.515-201.207h1093.054l-5.099 103.781zM1170.414 647.141h-1108.323c-56.341 0-59.212-29.202-56.020-65.061l35.892-503.826c21.412 30.427 50.537 54.875 84.769 70.427 8.116 3.721 16.607 6.473 25.245 8.832-34.049 19.813-57.222 56.475-57.222 98.953 0 63.333 50.922 114.67 113.728 114.67 3.017 0 5.851-0.667 8.803-0.896-14.791-25.591-23.393-55.168-23.393-86.775 0-43.877 16.919-85.55 46.135-117.23-87.281-43.017-147.704-127.634-160.047-224.329 8.849-3.575 20.064-5.641 34.626-5.641h28.629c-0.935 4.105-1.559 8.338-1.559 12.754 9.986 88.585 67.144 163.072 145.961 197.44 10.216 4.453 20.917 7.973 31.811 11.026-41.706 23.314-70.225 67.273-70.225 118.327 0 75.2 61.147 136.165 136.571 136.165s136.571-60.965 136.571-136.165c0-51.054-28.519-95.013-70.225-118.327 10.894-3.054 21.605-6.574 31.82-11.026 78.799-34.368 135.975-108.855 145.97-197.44 0-4.416-0.633-8.649-1.559-12.754h64.081l-0.083 1.472c-11.096 98.459-72.233 184.85-160.789 228.498 29.207 31.68 46.126 73.353 46.126 117.23 0 31.607-8.592 61.184-23.384 86.775 2.953 0.229 5.786 0.896 8.803 0.896 62.806 0 113.728-51.337 113.728-114.67 0-42.478-23.182-79.141-57.222-98.953 8.638-2.359 17.121-5.111 25.245-8.832 65.612-29.815 113.215-91.73 121.532-167.415 0-22.309-14.837-40.978-35.644-45.001h390.309c57.295 0 63.98 29.193 67.162 65.051l38.515 588.059c2.861 35.547 0 57.765-56.341 57.765z" />
<glyph unicode="&#xe606;" glyph-name="discuss" horiz-adv-x="1229" d="M73.286 589.723c0 55.964 18.924 107.702 56.771 155.212s89.482 85.053 154.91 112.634c65.426 27.579 136.59 41.369 213.491 41.369s148.065-13.79 213.491-41.369c65.426-27.579 117.062-65.124 154.91-112.634s56.771-99.246 56.771-155.212c0-55.964-18.924-107.702-56.771-155.212s-89.482-85.053-154.91-112.634c-65.426-27.579-136.59-41.369-213.491-41.369-34.625 0-70.056 3.221-106.293 9.662-49.926-35.431-105.889-61.199-167.894-77.303-14.494-3.622-31.807-6.844-51.939-9.662h-1.813c-4.429 0-8.555 1.611-12.381 4.832s-6.14 7.449-6.946 12.683c-0.403 1.207-0.604 2.516-0.604 3.925s0.101 2.718 0.302 3.925c0.201 1.208 0.604 2.416 1.207 3.622s1.107 2.214 1.509 3.020c0.403 0.804 1.107 1.911 2.114 3.321s1.813 2.416 2.416 3.020c0.604 0.605 1.509 1.611 2.718 3.020s2.014 2.315 2.416 2.718c2.014 2.416 6.644 7.449 13.89 15.098s12.48 13.589 15.702 17.817c3.221 4.228 7.751 10.066 13.589 17.515s10.87 15.2 15.098 23.252c4.228 8.052 8.355 16.91 12.381 26.573-49.926 28.989-89.181 64.62-117.767 106.896s-42.88 87.37-42.88 135.281v0zM445.311 205.621c23.351-1.611 41.067-2.416 53.146-2.416 64.823 0 127.027 9.060 186.616 27.177s112.734 44.088 159.44 77.908c50.328 37.042 88.98 79.718 115.956 128.034s40.464 99.448 40.464 153.399c0 31.002-4.631 61.602-13.89 91.799 51.939-28.586 93.006-64.42 123.204-107.5s45.296-89.383 45.296-138.904c0-48.314-14.293-93.509-42.88-135.583s-67.842-77.605-117.767-106.595c4.026-9.662 8.153-18.521 12.381-26.573s9.26-15.803 15.098-23.252c5.839-7.449 10.368-13.287 13.589-17.515s8.454-10.166 15.702-17.817c7.248-7.65 11.878-12.683 13.89-15.098 0.403-0.403 1.208-1.309 2.416-2.718s2.114-2.416 2.718-3.020c0.605-0.604 1.41-1.611 2.416-3.020s1.711-2.517 2.114-3.321c0.403-0.804 0.907-1.813 1.509-3.020s1.006-2.416 1.208-3.622c0.202-1.207 0.302-2.517 0.302-3.925s-0.202-2.718-0.604-3.925c-1.207-5.636-3.826-10.066-7.851-13.287s-8.454-4.631-13.287-4.228c-20.132 2.818-37.443 6.039-51.939 9.662-62.004 16.105-117.969 41.873-167.894 77.303-36.235-6.441-71.667-9.662-106.293-9.662-109.112 0-204.13 26.573-285.058 79.718v0z" />
<glyph unicode="&#xe607;" glyph-name="git" horiz-adv-x="1493" d="M1264.223 598.972l0.301 7.67c0 195.101-158.846 353.357-354.686 353.357-123.976 0-232.853-63.314-296.398-159.184-34.25 23.040-75.578 36.284-119.971 36.284-119.36 0-215.893-96.179-215.893-215.088v-5.555c-157.915-28.865-277.576-166.835-277.576-332.423 0-186.832 151.738-337.988 339.258-337.988h801.901c187.51 0 339.258 151.156 339.258 337.988 0 143.486-89.755 265.786-216.194 314.938v0zM619.365 199.864c12.383-11.602 12.383-30.421 0-42.032-12.364-11.602-29.072-11.602-41.455 0l-214.914 192.609 214.924 192.628c12.383 11.592 29.091 11.592 41.455 0 12.373-11.621 12.373-30.44 0-42.042l-166.865-150.586 166.856-150.576zM836.112 558.901l-69.314-222.73-66.987-213.61c-5.43-16.046-22.322-24.489-38.080-18.113-15.738 6.386-22.691 21.494-17.261 37.54l39.564 126.194 96.737 310.146c5.43 16.046 22.322 24.499 38.080 18.123 15.738-6.386 22.691-21.504 17.261-37.55v0zM902.497 157.831c-12.383-11.602-29.072-11.602-41.455 0-12.383 11.621-11.704 30.43 0.669 42.032l166.187 150.576-166.177 150.586c-12.383 11.612-13.052 30.421-0.669 42.042 12.373 11.592 29.072 11.592 41.445 0l214.914-192.628-214.914-192.609z" />
<glyph unicode="&#xe609;" glyph-name="online" horiz-adv-x="1575" d="M156.93 98.849v60.819h1216.393v-60.819c0-16.894-9.925-31.254-29.775-43.080s-43.713-17.739-71.59-17.739h-1013.662c-27.876 0-51.739 5.912-71.59 17.739s-29.776 26.186-29.776 43.080v0zM319.117 301.583v446.010c0 27.876 9.926 51.739 29.776 71.59s43.713 29.776 71.59 29.776h689.291c27.876 0 51.739-9.925 71.59-29.776s29.776-43.713 29.776-71.59v-446.010c0-27.876-9.925-51.739-29.776-71.59s-43.713-29.776-71.59-29.776h-689.291c-27.876 0-51.739 9.926-71.59 29.776s-29.776 43.713-29.776 71.59v0zM400.21 301.583c0-5.49 2.006-10.243 6.018-14.254s8.764-6.018 14.254-6.018h689.291c5.49 0 10.243 2.006 14.254 6.018s6.018 8.764 6.018 14.254v446.010c0 5.49-2.006 10.243-6.018 14.254s-8.764 6.018-14.254 6.018h-689.291c-5.49 0-10.243-2.006-14.254-6.018s-6.018-8.764-6.018-14.254v-446.010zM704.309 108.987c0-6.758 3.379-10.136 10.136-10.136h101.366c6.758 0 10.136 3.378 10.136 10.136s-3.378 10.136-10.136 10.136h-101.366c-6.758 0-10.136-3.379-10.136-10.136v0z" />
<glyph unicode="&#xe60a;" glyph-name="paas" horiz-adv-x="1365" d="M100.18 323.186c0 51.485 13.846 98.582 41.54 141.292s64.161 74.595 109.407 95.657c-0.779 10.921-1.17 19.307-1.17 25.157 0 82.69 29.253 153.286 87.759 211.793s129.102 87.759 211.793 87.759c61.627 0 117.499-17.161 167.62-51.485s86.686-79.178 109.698-134.563c27.303 24.183 59.677 36.273 97.121 36.273 41.344 0 76.644-14.626 105.896-43.88s43.88-64.553 43.88-105.896c0-29.253-7.995-56.165-23.986-80.74 50.316-11.701 91.855-37.931 124.618-78.692s49.146-87.466 49.146-140.123c0-62.017-21.939-114.964-65.82-158.844s-96.828-65.82-158.844-65.82h-636.547c-72.158 0-133.881 25.646-185.173 76.935s-76.935 113.014-76.935 185.173v0z" />
<glyph unicode="&#xe60b;" glyph-name="play_white" d="M0 466.286c0 89.572 22.071 172.178 66.214 247.821s104.035 135.535 179.679 179.679c75.643 44.143 158.25 66.214 247.821 66.214s172.178-22.071 247.821-66.214c75.643-44.143 135.535-104.035 179.679-179.679s66.214-158.25 66.214-247.821c0-89.572-22.071-172.178-66.214-247.821s-104.035-135.535-179.679-179.679c-75.643-44.143-158.25-66.214-247.821-66.214s-172.178 22.071-247.821 66.214c-75.643 44.143-135.535 104.035-179.679 179.679s-66.214 158.25-66.214 247.821v0zM144 466.286c0-63.429 15.643-121.928 46.929-175.5s73.714-96 127.286-127.286c53.572-31.286 112.071-46.929 175.5-46.929s121.928 15.643 175.5 46.929c53.572 31.286 96 73.714 127.286 127.286s46.929 112.071 46.929 175.5c0 63.429-15.643 121.928-46.929 175.5s-73.714 96-127.286 127.286c-53.572 31.286-112.071 46.929-175.5 46.929s-121.928-15.643-175.5-46.929c-53.572-31.286-96-73.714-127.286-127.286s-46.929-112.071-46.929-175.5v0zM329.143 260.571v411.429c0 15.857 6.857 27.857 20.571 36 14.143 7.714 27.857 7.5 41.143-0.643l349.714-205.714c13.714-7.714 20.571-19.5 20.571-35.357s-6.857-27.643-20.571-35.357l-349.714-205.714c-6.429-3.857-13.286-5.786-20.571-5.786-6.857 0-13.714 1.714-20.571 5.143-13.714 8.143-20.571 20.143-20.571 36v0z" />
<glyph unicode="&#xe60c;" glyph-name="play" d="M0 448c0 92.889 22.889 178.555 68.667 257s107.888 140.555 186.333 186.333c78.445 45.778 164.111 68.667 257 68.667s178.555-22.889 257-68.667c78.445-45.778 140.555-107.888 186.333-186.333s68.667-164.111 68.667-257c0-92.889-22.889-178.555-68.667-257s-107.888-140.555-186.333-186.333c-78.445-45.778-164.111-68.667-257-68.667s-178.555 22.889-257 68.667c-78.445 45.778-140.555 107.888-186.333 186.333s-68.667 164.111-68.667 257v0zM341.333 234.667c0-16.445 7.111-28.889 21.333-37.333 7.111-3.556 14.222-5.333 21.333-5.333 7.556 0 14.667 2 21.333 6l362.667 213.333c14.222 8 21.333 20.222 21.333 36.667s-7.111 28.667-21.333 36.667l-362.667 213.333c-13.778 8.444-28 8.667-42.667 0.667-14.222-8.444-21.333-20.889-21.333-37.333v-426.667z" />
<glyph unicode="&#xe60d;" glyph-name="qc" horiz-adv-x="870" d="M527.821 104.525c193.459 43.264 338.125 216.013 338.125 422.502 0 239.078-193.894 432.973-432.973 432.973s-432.973-193.894-432.973-432.973c0-163.584 90.778-305.971 224.691-379.597-62.208-21.837-107.11-57.523-123.571-74.445 95.846 14.362 143.898 21.965 284.109-69.427 105.523-68.813 362.496-33.69 442.214 49.792-116.71-43.187-187.904-2.253-299.622 51.174v0zM347.776 288.947c-33.408 11.059-62.49 27.853-87.219 50.406-24.755 22.554-44.339 50.97-58.752 85.299s-21.632 74.752-21.632 121.318c0 48.461 7.091 90.573 21.274 126.336 14.157 35.738 33.254 65.254 57.293 88.55 24.038 23.27 51.789 40.678 83.251 52.173 31.488 11.52 64.768 17.28 99.84 17.28 36.531 0 68.122-4.403 94.797-13.21s47.693-20.096 63.078-33.894l16.563 36.301h70.656v-175.872l-72.806-5.76c-7.219 37.478-21.76 66.662-43.622 87.552-21.862 20.915-51.533 31.36-89.011 31.36-54.323 0-92.877-17.894-115.686-53.683-22.835-35.814-34.253-86.4-34.253-151.757 0-34.125 3.482-63.411 10.445-87.936 6.963-24.499 16.589-44.57 28.851-60.186s26.675-27.162 43.238-34.586c16.589-7.475 34.253-11.187 52.992-11.187 45.158 0 80.128 9.139 104.883 27.392 24.73 18.278 43.341 46.618 55.859 85.069l65.587-16.589c-6.246-24.038-15.13-46.848-26.675-68.48-11.52-21.606-26.675-40.858-45.414-57.651-18.739-16.845-41.805-30.157-69.197-40.013s-59.827-14.771-97.306-14.771c-37.965 0-73.651 5.504-107.034 16.538v0z" />
<glyph unicode="&#xe60e;" glyph-name="share2" horiz-adv-x="964" d="M29.655 443.961c0 50.347 17.697 93.217 53.090 128.61s78.264 53.090 128.61 53.090c47.697 0 88.958-16.277 123.784-48.833l204.414 102.208c-0.758 8.328-1.135 14.763-1.135 19.305 0 50.347 17.697 93.217 53.090 128.61s78.264 53.090 128.61 53.090c50.347 0 93.217-17.697 128.61-53.090s53.090-78.264 53.090-128.61c0-50.347-17.697-93.217-53.090-128.61s-78.264-53.090-128.61-53.090c-47.697 0-88.958 16.277-123.784 48.833l-204.414-102.208c0.758-8.328 1.135-14.763 1.135-19.305s-0.378-10.977-1.135-19.305l204.414-102.208c34.826 32.555 76.087 48.833 123.784 48.833 50.347 0 93.217-17.697 128.61-53.090s53.090-78.264 53.090-128.61c0-50.347-17.697-93.217-53.090-128.61s-78.264-53.090-128.61-53.090c-50.347 0-93.217 17.697-128.61 53.090s-53.090 78.264-53.090 128.61c0 4.542 0.378 10.977 1.135 19.305l-204.414 102.208c-34.826-32.555-76.087-48.833-123.784-48.833-50.347 0-93.217 17.697-128.61 53.090s-53.090 78.264-53.090 128.61v0z" />
<glyph unicode="&#xe610;" glyph-name="task" horiz-adv-x="1229" d="M106.583 109.443v145.096c0 9.824 3.59 18.326 10.77 25.505s15.681 10.77 25.505 10.77h943.12c9.824 0 18.326-3.59 25.505-10.77s10.77-15.681 10.77-25.505v-145.096c0-9.824-3.59-18.326-10.77-25.505s-15.681-10.77-25.505-10.77h-943.12c-9.824 0-18.326 3.59-25.505 10.77s-10.77 15.681-10.77 25.505v0zM106.583 399.635v145.096c0 9.824 3.59 18.326 10.77 25.505s15.681 10.77 25.505 10.77h943.12c9.824 0 18.326-3.59 25.505-10.77s10.77-15.681 10.77-25.505v-145.096c0-9.824-3.59-18.326-10.77-25.505s-15.681-10.77-25.505-10.77h-943.12c-9.824 0-18.326 3.59-25.505 10.77s-10.77 15.681-10.77 25.505v0zM106.583 689.826v145.096c0 9.824 3.59 18.326 10.77 25.505s15.681 10.77 25.505 10.77h943.12c9.824 0 18.326-3.59 25.505-10.77s10.77-15.681 10.77-25.505v-145.096c0-9.824-3.59-18.326-10.77-25.505s-15.681-10.77-25.505-10.77h-943.12c-9.824 0-18.326 3.59-25.505 10.77s-10.77 15.681-10.77 25.505v0zM469.321 435.909h580.381v72.547h-580.381v-72.547zM686.964 145.718h362.738v72.547h-362.738v-72.547zM832.061 726.1h217.643v72.547h-217.643v-72.547z" />
<glyph unicode="&#xe611;" glyph-name="team2" horiz-adv-x="1138" d="M67.86 463.602c0 118.439 20.802 177.656 62.407 177.656 2.014 0 9.311-3.523 21.892-10.569s28.938-14.176 49.069-21.39c20.132-7.214 40.095-10.821 59.89-10.821 22.479 0 44.791 3.859 66.936 11.576-1.677-12.415-2.516-23.487-2.516-33.216 0-46.638 13.589-89.583 40.767-128.84-54.355-1.677-98.811-23.15-133.37-64.42h-67.439c-27.513 0-50.664 6.794-69.453 20.382s-28.184 33.469-28.184 59.638v0zM132.28 770.099c0 35.566 12.582 65.93 37.746 91.094s55.528 37.746 91.094 37.746c35.566 0 65.93-12.582 91.094-37.746s37.746-55.528 37.746-91.094c0-35.566-12.583-65.93-37.746-91.094s-55.528-37.746-91.094-37.746c-35.566 0-65.93 12.582-91.094 37.746s-37.746 55.528-37.746 91.094v0zM196.7 127.412c0 17.783 0.587 35.146 1.761 52.090s3.523 35.23 7.046 54.857c3.523 19.628 7.969 37.83 13.338 54.607s12.582 33.132 21.64 49.069c9.060 15.937 19.46 29.526 31.203 40.767s26.086 20.215 43.030 26.924c16.944 6.711 35.649 10.066 56.115 10.066 3.356 0 10.569-3.607 21.64-10.821s23.319-15.266 36.739-24.159c13.421-8.891 31.371-16.944 53.851-24.159s45.127-10.821 67.943-10.821c22.815 0 45.462 3.607 67.943 10.821s40.43 15.266 53.851 24.159c13.421 8.891 25.667 16.944 36.739 24.159s18.285 10.821 21.64 10.821c20.466 0 39.172-3.355 56.115-10.066s31.288-15.685 43.030-26.924c11.742-11.24 22.145-24.828 31.203-40.767s16.273-32.294 21.64-49.069c5.368-16.776 9.814-34.978 13.338-54.607s5.872-37.914 7.046-54.857c1.174-16.944 1.761-34.307 1.761-52.090 0-40.262-12.246-72.052-36.739-95.371s-57.038-34.978-97.636-34.978h-439.867c-40.598 0-73.143 11.659-97.636 34.978s-36.739 55.109-36.739 95.371v0zM357.749 576.84c0 53.348 18.872 98.895 56.62 136.64s83.292 56.62 136.64 56.62c53.348 0 98.895-18.872 136.64-56.62s56.62-83.292 56.62-136.64c0-53.348-18.872-98.894-56.62-136.64s-83.292-56.62-136.64-56.62c-53.348 0-98.894 18.872-136.64 56.62s-56.62 83.292-56.62 136.64v0zM712.057 770.099c0 35.566 12.583 65.93 37.746 91.094s55.528 37.746 91.094 37.746c35.566 0 65.93-12.582 91.094-37.746s37.746-55.528 37.746-91.094c0-35.566-12.583-65.93-37.746-91.094s-55.528-37.746-91.094-37.746c-35.566 0-65.93 12.582-91.094 37.746s-37.746 55.528-37.746 91.094v0zM735.712 448c27.177 39.257 40.767 82.202 40.767 128.84 0 9.731-0.838 20.802-2.517 33.216 22.145-7.717 44.457-11.576 66.936-11.576 19.796 0 39.758 3.607 59.89 10.821s36.488 14.343 49.069 21.39c12.583 7.046 19.88 10.569 21.892 10.569 41.605 0 62.407-59.218 62.407-177.656 0-26.17-9.395-46.051-28.184-59.638s-41.939-20.382-69.453-20.382h-67.439c-34.558 41.269-79.014 62.742-133.37 64.42v0z" />
<glyph unicode="&#xe612;" glyph-name="terminal" horiz-adv-x="1536" d="M181.168 160.447c0 5.937 2.284 11.187 6.851 15.755l269.219 269.218-269.219 269.219c-4.567 4.567-6.851 9.819-6.851 15.755s2.284 11.187 6.851 15.755l34.252 34.251c4.567 4.567 9.819 6.851 15.755 6.851s11.187-2.283 15.755-6.851l319.225-319.225c4.567-4.567 6.851-9.818 6.851-15.755s-2.283-11.187-6.851-15.755l-319.225-319.225c-4.567-4.567-9.818-6.851-15.755-6.851s-11.187 2.283-15.755 6.851l-34.252 34.251c-4.567 4.567-6.851 9.818-6.851 15.755v0zM610.685 72.762v43.841c0 6.393 2.055 11.646 6.165 15.755s9.362 6.165 15.755 6.165h657.631c6.392 0 11.646-2.055 15.755-6.165s6.165-9.362 6.165-15.755v-43.841c0-6.393-2.055-11.646-6.165-15.755s-9.362-6.165-15.755-6.165h-657.631c-6.393 0-11.645 2.055-15.755 6.165s-6.165 9.362-6.165 15.755v0z" />
<glyph unicode="&#xe614;" glyph-name="app" horiz-adv-x="626" d="M0 38.4v819.2c0 27.733 10.321 51.733 30.963 72s45.086 30.4 73.333 30.4h417.185c28.247 0 52.691-10.133 73.333-30.4s30.963-44.267 30.963-72v-819.2c0-27.733-10.321-51.733-30.963-72s-45.086-30.4-73.333-30.4h-417.185c-28.247 0-52.691 10.133-73.333 30.4s-30.963 44.267-30.963 72v0zM78.222 166.4c0-6.933 2.58-12.933 7.741-18s11.272-7.6 18.333-7.6h417.185c7.062 0 13.173 2.533 18.333 7.6s7.741 11.067 7.741 18v563.2c0 6.933-2.58 12.933-7.741 18s-11.272 7.6-18.333 7.6h-417.185c-7.062 0-13.173-2.533-18.333-7.6s-7.741-11.067-7.741-18v-563.2zM234.667 844.8c0-8.533 4.346-12.8 13.037-12.8h130.37c8.691 0 13.037 4.267 13.037 12.8s-4.346 12.8-13.037 12.8h-130.37c-8.691 0-13.037-4.267-13.037-12.8v0zM247.704 38.4c0-17.6 6.383-32.667 19.148-45.2s28.111-18.8 46.037-18.8c17.926 0 33.272 6.267 46.037 18.8s19.148 27.6 19.148 45.2c0 17.6-6.383 32.667-19.148 45.2s-28.111 18.8-46.037 18.8c-17.926 0-33.272-6.267-46.037-18.8s-19.148-27.6-19.148-45.2v0z" />
<glyph unicode="&#xe615;" glyph-name="archive" horiz-adv-x="1088" d="M128 27.068v866.165c0 14.436 5.053 26.707 15.158 36.812s22.376 15.158 36.812 15.158h433.083v-294.496c0-14.436 5.053-26.707 15.158-36.812s22.376-15.158 36.812-15.158h294.496v-571.669c0-14.436-5.053-26.707-15.158-36.812s-22.376-15.158-36.812-15.158h-727.579c-14.436 0-26.707 5.053-36.812 15.158s-15.158 22.376-15.158 36.812v0zM682.346 668.030v255.519c7.94-5.053 14.436-10.105 19.489-15.158l220.872-220.872c5.053-5.053 10.105-11.549 15.158-19.489h-255.519z" />
</font>
</defs>
</svg>
